<svg width="72" height="72" viewBox="0 0 72 72" fill="none" xmlns="http://www.w3.org/2000/svg">
<path d="M0 13.5C0 6.04416 6.04416 0 13.5 0H58.5C65.9558 0 72 6.04416 72 13.5V58.5C72 65.9558 65.9558 72 58.5 72H13.5C6.04416 72 0 65.9558 0 58.5V13.5Z" fill="#FF444F"/>
<path d="M13.5 0C6.04416 0 0 6.04416 0 13.5V13.8921L67.3075 3.26845C64.9433 1.2315 61.8655 0 58.5 0H13.5Z" fill="#E12E3A"/>
<path d="M68.6969 4.65243L56.3498 71.9999L58.5 72C65.9558 72 72 65.9558 72 58.5V13.5C72 10.1155 70.7545 7.02183 68.6969 4.65243Z" fill="#E12E3A"/>
<path d="M54.552 25.0694V29.2589H47.9685V46.8989H43.0545V29.2589H36.471V25.0694H54.552Z" fill="white"/>
<path d="M19.9319 35.9249C19.9319 36.9959 20.0579 37.9619 20.3099 38.8229C20.5829 39.6839 20.9609 40.4293 21.4439 41.0593C21.9479 41.6683 22.5569 42.1409 23.2709 42.4769C23.9849 42.8129 24.8039 42.9809 25.7279 42.9809C26.3 42.9809 26.8342 42.9134 27.3304 42.7785C27.6174 42.7005 27.8917 42.6 28.1534 42.4769C28.8884 42.1409 29.4974 41.6683 29.9804 41.0593C30.2145 40.7667 30.4214 40.4492 30.6011 40.1067C30.8083 39.7119 30.9794 39.2839 31.1144 38.8229C31.3874 37.9619 31.5239 36.9959 31.5239 35.9249C31.5239 34.8538 31.3874 33.8879 31.1144 33.0269C30.8624 32.1449 30.4844 31.3994 29.9804 30.7903C29.4974 30.1604 28.8884 29.6774 28.1534 29.3414C27.4394 29.0054 26.6309 28.8374 25.7279 28.8374C24.8039 28.8374 23.9849 29.0159 23.2709 29.3729C22.5569 29.7089 21.9479 30.1919 21.4439 30.8219C20.9609 31.4309 20.5829 32.1763 20.3099 33.0583C20.0579 33.9193 19.9319 34.8749 19.9319 35.9249ZM36.5954 35.9249C36.5954 37.7939 36.3119 39.4424 35.7449 40.8704C35.3119 41.986 34.7469 42.9631 34.0499 43.8015C33.8679 44.0204 33.6769 44.2298 33.4769 44.4299C32.6475 45.2411 31.6789 45.8822 30.571 46.353C30.3884 46.4306 30.202 46.5035 30.0119 46.5719C28.6889 47.0549 27.2609 47.2964 25.7279 47.2964C24.2369 47.2964 22.8299 47.0549 21.5069 46.5719C20.1839 46.0889 19.0289 45.3749 18.0419 44.4299C17.0549 43.4639 16.2779 42.2774 15.7109 40.8704C15.1439 39.4424 14.8604 37.7939 14.8604 35.9249C14.8604 34.0559 15.1544 32.4179 15.7424 31.0109C16.3304 29.5829 17.1179 28.3859 18.1049 27.4199C19.1129 26.4539 20.2679 25.7294 21.5699 25.2464C22.8929 24.7634 24.2789 24.5219 25.7279 24.5219C27.2189 24.5219 28.6259 24.7634 29.9489 25.2464C31.2719 25.7294 32.4269 26.4539 33.4139 27.4199C34.4009 28.3859 35.1779 29.5829 35.7449 31.0109C36.3119 32.4179 36.5954 34.0559 36.5954 35.9249Z" fill="white"/>
<path d="M27.3304 42.7785C27.6174 42.7005 27.8917 42.6 28.1534 42.4769C28.8884 42.1409 29.4974 41.6683 29.9804 41.0593C30.2145 40.7667 30.4214 40.4492 30.6011 40.1067L28.0196 37.3411L24.9285 40.1291L27.3304 42.7785Z" fill="white"/>
<path d="M34.0499 43.8015C33.8679 44.0204 33.6769 44.2298 33.4769 44.4299C32.6475 45.2411 31.6789 45.8822 30.571 46.353L33.0332 49.1964L36.3884 46.395L34.0499 43.8015Z" fill="white"/>
</svg>
